<svg xmlns="http://www.w3.org/2000/svg" width="1280" height="720" viewBox="0 0 1280 720" role="img" aria-labelledby="title desc">
  <title id="title">Medallion Architecture</title>
  <desc id="desc">Raw data becomes trusted data, then business-ready serving tables.</desc>
  <defs>
    <marker id="arrow-blue" markerWidth="14" markerHeight="14" refX="11" refY="5" orient="auto"><path d="M0,0 L12,5 L0,10 Z" fill="#1a73e8"/></marker>
    <marker id="arrow-red" markerWidth="14" markerHeight="14" refX="11" refY="5" orient="auto"><path d="M0,0 L12,5 L0,10 Z" fill="#d93025"/></marker>
    <marker id="arrow-orange" markerWidth="14" markerHeight="14" refX="11" refY="5" orient="auto"><path d="M0,0 L12,5 L0,10 Z" fill="#f29900"/></marker>
    <marker id="arrow-black" markerWidth="14" markerHeight="14" refX="11" refY="5" orient="auto"><path d="M0,0 L12,5 L0,10 Z" fill="#202124"/></marker>
    <style>
    .paper { fill: #fffdf8; }
    .texture { fill: none; stroke: #202124; stroke-width: 1.2; opacity: .045; }
    .sketch { stroke: #202124; stroke-width: 3.2; stroke-linecap: round; stroke-linejoin: round; fill: none; }
    .sketch-fill { fill: #fffefa; }
    .soft-fill { fill: #f8fbff; }
    .warm-fill { fill: #fff7e6; }
    .green-fill { fill: #f5fff7; }
    .gold-fill { fill: #fff8d6; }
    .accent-red { stroke: #d93025; fill: none; }
    .accent-blue { stroke: #1a73e8; fill: none; }
    .accent-orange { stroke: #f29900; fill: none; }
    .label { font: 700 29px Arial, sans-serif; fill: #202124; }
    .note { font: 22px Arial, sans-serif; fill: #3c4043; }
    .tiny { font: 18px Arial, sans-serif; fill: #5f6368; }
    .red-text { fill: #d93025; }
    .blue-text { fill: #1a73e8; }
    .orange-text { fill: #b06000; }
</style>
  </defs>

  <rect width="1280" height="720" class="paper"/>
  <path d="M48 78 C180 58, 260 92, 405 72 S700 88, 840 58 S1070 70, 1210 52" class="texture"/>
  <path d="M62 632 C190 610, 322 654, 480 626 S780 652, 930 622 S1110 644, 1228 615" class="texture"/>
  <circle cx="118" cy="210" r="46" class="texture"/>
  <circle cx="1150" cy="560" r="60" class="texture"/>
  <path d="M1060 120 q55 28 94 -10 q-26 56 25 82" class="texture"/>

  <text x="640" y="58" text-anchor="middle" class="label">Medallion Architecture</text>
  <text x="640" y="91" text-anchor="middle" class="note">Raw data becomes trusted data, then business-ready serving tables.</text>

  <path d="M80,280 C150,270 170,283 232,278 C245,350 238,320 233,372 C145,387 150,378 76,375 C65,305 74,335 80,280 Z" class="sketch sketch-fill"/>
<text x="155.0" y="322.5" text-anchor="middle" class="label">Sources</text>
<text x="155.0" y="352.5" text-anchor="middle" class="note">files / events</text>
  <path d="M340,215 C410,205 460,218 522,213 C535,285 528,340 523,392 C435,407 410,398 336,395 C325,325 334,270 340,215 Z" class="sketch warm-fill"/>
<text x="430.0" y="300.0" text-anchor="middle" class="label">Bronze</text>
<text x="430.0" y="330.0" text-anchor="middle" class="note">raw</text>
<text x="430.0" y="355.0" text-anchor="middle" class="note">append friendly</text>
<text x="430.0" y="380.0" text-anchor="middle" class="note">replayable</text>
  <path d="M620,215 C690,205 740,218 802,213 C815,285 808,340 803,392 C715,407 690,398 616,395 C605,325 614,270 620,215 Z" class="sketch soft-fill"/>
<text x="710.0" y="300.0" text-anchor="middle" class="label">Silver</text>
<text x="710.0" y="330.0" text-anchor="middle" class="note">clean</text>
<text x="710.0" y="355.0" text-anchor="middle" class="note">typed</text>
<text x="710.0" y="380.0" text-anchor="middle" class="note">deduped</text>
  <path d="M900,215 C970,205 1020,218 1082,213 C1095,285 1088,340 1083,392 C995,407 970,398 896,395 C885,325 894,270 900,215 Z" class="sketch gold-fill"/>
<text x="990.0" y="300.0" text-anchor="middle" class="label">Gold</text>
<text x="990.0" y="330.0" text-anchor="middle" class="note">business metrics</text>
<text x="990.0" y="355.0" text-anchor="middle" class="note">serving tables</text>
  <path d="M240 330 C285 295,300 285,330 305" class="sketch accent-blue" marker-end="url(#arrow-blue)"/>
  <path d="M530 305 C565 285,585 285,610 305" class="sketch accent-blue" marker-end="url(#arrow-blue)"/>
  <path d="M810 305 C845 285,865 285,890 305" class="sketch accent-blue" marker-end="url(#arrow-blue)"/>
  <text x="565" y="250" text-anchor="middle" class="note red-text">quality checks</text>
  <path d="M530 250 C560 220,585 220,610 250" class="sketch accent-red" stroke-dasharray="10 9" marker-end="url(#arrow-red)"/>
  <text x="845" y="250" text-anchor="middle" class="note red-text">business validation</text>
  <path d="M810 250 C840 220,865 220,890 250" class="sketch accent-red" stroke-dasharray="10 9" marker-end="url(#arrow-red)"/>
  <path d="M570,439.2 C560.0,435.0 576.0,422.0 587.1,430 C618.0,438.0 612.0,473.7 589.0,476.0 C575.0,480.0 562.0,455.3 570,439.2 Z" fill="#202124"/><circle cx="583.3" cy="445.64" r="3.2" fill="#fff"/><circle cx="593.56" cy="446.56" r="3.2" fill="#fff"/><path d="M583.3,476.0 q-6.0,12.0 -16.0,18.0" class="sketch" stroke-width="2.2"/><path d="M593.94,476.0 q7.0,12.0 17.0,18.0" class="sketch" stroke-width="2.2"/><text x="589.0" y="520.0" text-anchor="middle" class="tiny">cleans</text>
  <path d="M850,439.2 C840.0,435.0 856.0,422.0 867.1,430 C898.0,438.0 892.0,473.7 869.0,476.0 C855.0,480.0 842.0,455.3 850,439.2 Z" fill="#202124"/><circle cx="863.3" cy="445.64" r="3.2" fill="#fff"/><circle cx="873.56" cy="446.56" r="3.2" fill="#fff"/><path d="M863.3,476.0 q-6.0,12.0 -16.0,18.0" class="sketch" stroke-width="2.2"/><path d="M873.94,476.0 q7.0,12.0 17.0,18.0" class="sketch" stroke-width="2.2"/><text x="869.0" y="520.0" text-anchor="middle" class="tiny">publishes</text>

</svg>
